<svg width="262" height="212" viewBox="0 0 262 212" fill="none" xmlns="http://www.w3.org/2000/svg">
<path fill-rule="evenodd" clip-rule="evenodd" d="M225 38C225.167 76.335 225 114.668 224.5 153C222.44 164.726 215.607 171.893 204 174.5C148.668 175 93.334 175.167 38 175C38 180.333 38 185.667 38 191C37.012 185.86 36.679 180.526 37 175C24.178 177.712 13.3446 174.378 4.50002 165C2.60702 161.882 1.27363 158.549 0.500025 155C-0.166675 109.333 -0.166675 63.667 0.500025 18C3.76032 9.07253 9.92702 3.23923 19 0.500025C80.667 -0.166675 142.333 -0.166675 204 0.500025C215.052 2.55203 221.886 9.05202 224.5 20C224.999 25.9908 225.166 31.9908 225 38Z" fill="#F47C00"/>
<path fill-rule="evenodd" clip-rule="evenodd" d="M164 31C180.712 31.108 188.212 39.4414 186.5 56C178.57 70.374 168.07 72.708 155 63C145.947 48.886 148.947 38.2192 164 31Z" fill="#FFF6C0"/>
<path fill-rule="evenodd" clip-rule="evenodd" d="M225 38C232.406 37.652 239.739 38.152 247 39.5C254.254 42.8228 259.088 48.323 261.5 56C262.167 102 262.167 148 261.5 194C258.855 203.57 252.688 209.403 243 211.5C180.333 212.167 117.667 212.167 55 211.5C45.109 208.114 39.442 201.28 38 191C38 185.667 38 180.333 38 175C93.334 175.167 148.668 175 204 174.5C215.607 171.893 222.44 164.726 224.5 153C225 114.668 225.167 76.335 225 38Z" fill="#E65100"/>
<path fill-rule="evenodd" clip-rule="evenodd" d="M131 126C131.111 126.617 131.444 127.117 132 127.5C127.667 132.5 123.333 137.5 119 142.5C90.002 143 61.002 143.167 32 143C49.996 115.682 68.496 88.682 87.5 62C102.221 83.214 116.721 104.548 131 126Z" fill="#942A08"/>
<path fill-rule="evenodd" clip-rule="evenodd" d="M32 143C61.002 143.167 90.002 143 119 142.5C123.333 137.5 127.667 132.5 132 127.5C131.444 127.117 131.111 126.617 131 126C132.517 125.989 133.684 125.323 134.5 124C141.477 114.856 148.643 105.856 156 97C168.333 112.333 180.667 127.667 193 143C138.599 144.328 84.932 144.328 32 143Z" fill="#BE370B"/>
</svg>
